<?xml version="1.0" encoding="UTF-8"?> <!-- Generator: Adobe Illustrator 16.0.0, SVG Export Plug-In . SVG Version: 6.00 Build 0) --> <svg xmlns="http://www.w3.org/2000/svg" xmlns:xlink="http://www.w3.org/1999/xlink" version="1.1" id="Layer_1" x="0px" y="0px" width="1000px" height="1000px" viewBox="0 0 1000 1000" xml:space="preserve"> <g> <g> <g> <path fill="#FFFFFF" d="M686.049,460.113c8.202-3.177,18.172,2.904,18.956,11.686c1.232,7.04-4.242,12.329-8.079,17.451 c-3.819,5.192-11.317,7.093-17.168,4.409c-5.905-2.5-9.531-9.284-8.299-15.576c0.651-4.717,4.347-8.043,6.917-11.774 C680.286,463.571,682.82,461.151,686.049,460.113z"></path> <path fill="#FFFFFF" d="M643.739,509.375c5.94-2.121,13.103,0.193,16.562,5.5c3.74,5.394,3.115,13.358-1.593,17.996 c-65.472,67.18-147.136,119.337-237.187,146.441c-6.662,2.104-14.45-1.566-17.089-8.025c-2.403-5.412-1.03-12.241,3.388-16.218 c3.159-3.089,7.709-3.705,11.713-5.095c81.286-25.731,155.065-73.005,214.993-133.373 C637.315,513.89,639.867,510.581,643.739,509.375z"></path> </g> <g> <g> <path fill="#FCCF10" d="M802.861,154.084c5.755,8.246,14.511,13.675,23.311,18.154c9.301,75.698,2.728,153.129-17.591,226.565 c-17.072,59.831-47.688,115.447-87.349,163.257c-39.688,47.863-88.308,88.203-142.305,118.985 c-61.239,34.875-129.712,57.578-200.015,63.844c-79.288,6.846-160.239-7.102-232.875-39.556 c1.575-6.415,1.223-13.42-1.909-19.315c-4.699-9.531-13.869-16.007-23.637-19.598c16.447-2.007,33.071-0.484,49.518,0.827 c13.464,1.108,26.919,2.904,40.454,2.648c39.389-0.37,78.663-5.051,117.251-12.777c35.138-7.128,69.872-16.65,103.259-29.788 c58.925-23.074,113.907-55.924,162.773-96.087c45.866-37.744,86.442-82.016,119.381-131.481 c41.704-62.48,71.086-133.716,81.901-208.234C796.93,178.962,796.806,165.603,802.861,154.084z M686.049,460.113 c-3.229,1.038-5.764,3.458-7.673,6.195c-2.57,3.731-6.266,7.058-6.917,11.774c-1.232,6.292,2.394,13.077,8.299,15.576 c5.852,2.684,13.349,0.783,17.168-4.409c3.837-5.122,9.311-10.411,8.079-17.451 C704.222,463.017,694.251,456.936,686.049,460.113z M643.739,509.375c-3.872,1.206-6.424,4.514-9.213,7.225 c-59.928,60.368-133.708,107.642-214.993,133.373c-4.004,1.391-8.554,2.006-11.713,5.095 c-4.417,3.978-5.791,10.806-3.388,16.218c2.64,6.459,10.428,10.129,17.089,8.025c90.05-27.104,171.715-79.261,237.187-146.441 c4.708-4.638,5.333-12.602,1.593-17.996C656.842,509.569,649.679,507.254,643.739,509.375z"></path> </g> </g> <g> <path fill="#FF9408" d="M877.828,166.413c7.771,12.346,11.396,26.638,15.673,40.427c27.245,93.658,26.708,194.304,3.898,288.825 c-11.66,49.474-32.568,96.615-60.465,139.058c-5.438,8.026-10.683,16.262-16.896,23.716c-4.066,2.103-7.586,5.042-11.247,7.752 c-92.163,67.962-200.728,113.617-313.826,131.657c-42.785,6.855-86.24,9.434-129.536,7.797 c-63.061-2.412-126.131-11.211-186.701-29.207c-18.568-6.178-36.397-14.371-54.868-20.839c-1.417-0.431-2.869-0.713-4.321-0.985 c-5.94-5.095-10.754-11.317-15.453-17.53c10.533,1.901,21.146-2.481,28.53-9.917c70.479,31.891,148.376,47.353,225.702,44.387 c66.906-2.649,132.959-19.756,193.565-48.03c54.921-25.625,105.583-60.377,149.178-102.494 c41.686-40.26,76.912-87.375,102.538-139.41c14.247-28.934,25.511-59.365,33.281-90.675 c17.134-68.64,22.942-140.254,15.673-210.681c6.178,0.281,12.813-0.264,17.97-4.039 C873.982,173.858,876.129,170.153,877.828,166.413z"></path> </g> <g> <path fill="#CC7606" d="M808.792,666.191c3.661-2.71,7.181-5.65,11.247-7.752c-6.055,8.949-13.174,17.151-20.09,25.449 c-68.508,79.798-161.841,138.151-263.815,164.129c-31.39,7.938-63.606,12.76-95.973,13.957 c-71.492,2.535-143.493-11.44-208.912-40.357c-26.374-11.994-52.677-24.438-77.106-40.101 c-12.241-7.973-24.165-16.632-34.602-26.902c1.452,0.272,2.904,0.555,4.321,0.985c18.471,6.468,36.3,14.661,54.868,20.839 c60.571,17.996,123.64,26.795,186.701,29.207c43.295,1.637,86.75-0.941,129.536-7.797 C608.064,779.808,716.629,734.154,808.792,666.191z"></path> </g> </g> <g> <g> <path d="M840.525,112.847h0.466c1.337,1.03,3.08,1.144,4.699,1.426c13.596,1.945,26.286,8.554,36.396,17.75 c12.514,11.361,21.56,26.162,27.439,41.923c8.676,24.561,15.286,49.826,20.169,75.407c6.503,33.167,8.985,66.933,10.305,100.654 v11.563c-1.232,29.383-3.019,58.801-7.683,87.876c-4.03,25.766-9.434,51.348-16.764,76.375 c-14.423,48.593-37.241,94.582-66.396,136.004c-53.592,76.129-127.873,137.157-212.019,176.73 c-50.451,23.689-104.632,39.644-160.045,45.971c-15.189,1.813-30.475,2.517-45.734,3.273c-9.389,0.396-18.779-0.114-28.151-0.66 c-67.874-2.763-135.124-19.509-196.38-48.857c-28.706-13.473-57.262-27.799-82.791-46.781 c-10.313-7.717-20.205-16.078-29.031-25.485c-11.493-12.654-20.979-27.21-27.535-43.005c-4.435-10.516-6.873-21.851-6.882-33.273 c-0.141-0.149-0.44-0.449-0.59-0.599v-0.537c0.132-0.246,0.396-0.739,0.528-0.986c0.871-5.13,1.813-10.305,3.872-15.109 c3.802-9.231,11-16.843,19.642-21.727c11.369-6.486,24.508-9.029,37.417-10.085c24.438-1.945,48.858,1.276,73.181,3.273 c8.193,0.775,16.421,0.484,24.64,0.414c25.362-0.73,50.67-3.221,75.733-7.189c35.913-5.747,71.465-14.115,105.899-25.863 c61.345-21.138,118.668-53.46,169.4-93.816c50.714-40.419,95.004-89.074,129.544-144.003 c34.092-54.199,58.529-114.814,68.904-178.121c2.332-13.147,2.605-26.646,6.204-39.565c2.877-10.648,8.563-20.962,17.732-27.412 c9.257-6.398,19.703-11.255,30.765-13.517C829.076,113.701,834.849,113.657,840.525,112.847z M802.861,154.084 c-6.055,11.519-5.931,24.877-7.833,37.444c-10.815,74.518-40.198,145.754-81.901,208.234 c-32.938,49.465-73.515,93.737-119.381,131.481c-48.866,40.163-103.849,73.013-162.773,96.087 c-33.387,13.138-68.121,22.66-103.259,29.788c-38.588,7.727-77.863,12.408-117.251,12.777c-13.534,0.255-26.99-1.54-40.454-2.648 c-16.447-1.312-33.071-2.834-49.518-0.827c9.768,3.59,18.938,10.067,23.637,19.598c3.133,5.896,3.485,12.901,1.909,19.315 c72.635,32.455,153.586,46.402,232.875,39.556c70.303-6.266,138.776-28.969,200.015-63.844 c53.997-30.782,102.617-71.122,142.305-118.985c39.662-47.811,70.277-103.426,87.349-163.257 c20.319-73.437,26.892-150.867,17.591-226.565C817.372,167.759,808.616,162.33,802.861,154.084z M877.828,166.413 c-1.699,3.74-3.846,7.445-7.304,9.812c-5.157,3.775-11.792,4.321-17.97,4.039c7.269,70.427,1.461,142.041-15.673,210.681 c-7.77,31.311-19.034,61.741-33.281,90.675c-25.626,52.034-60.852,99.149-102.538,139.41 c-43.595,42.117-94.257,76.868-149.178,102.494c-60.605,28.274-126.659,45.381-193.565,48.03 c-77.326,2.966-155.223-12.496-225.702-44.387c-7.383,7.436-17.996,11.818-28.53,9.917c4.699,6.213,9.513,12.435,15.453,17.53 c10.437,10.27,22.361,18.929,34.602,26.902c24.429,15.664,50.732,28.107,77.106,40.101 c65.419,28.917,137.42,42.892,208.912,40.357c32.366-1.197,64.583-6.019,95.973-13.957 c101.974-25.978,195.307-84.331,263.815-164.129c6.917-8.298,14.036-16.5,20.09-25.449c6.213-7.454,11.458-15.69,16.896-23.716 c27.896-42.442,48.805-89.584,60.465-139.058c22.81-94.521,23.347-195.167-3.898-288.825 C889.224,193.051,885.599,178.759,877.828,166.413z"></path> </g> </g> </g> </svg> 